<svg width="50" height="50" fill="none" xmlns="http://www.w3.org/2000/svg"><g filter="url(#filter0_d_735_2053)"><path d="M25 49.121C11.678 49.121.879 38.321.879 25 .879 11.678 11.679.879 25 .879c13.322 0 24.121 10.8 24.121 24.121 0 13.322-10.8 24.121-24.121 24.121z" fill="url(#paint0_radial_735_2053)"/></g><path fill-rule="evenodd" clip-rule="evenodd" d="M0 25c0 13.807 11.193 25 25 25s25-11.193 25-25S38.807 0 25 0 0 11.193 0 25zm47.248 0c0 12.287-9.96 22.248-22.248 22.248-12.287 0-22.248-9.96-22.248-22.248 0-12.287 9.96-22.248 22.248-22.248 12.287 0 22.248 9.96 22.248 22.248z" fill="#8DC641"/><path fill-rule="evenodd" clip-rule="evenodd" d="M0 25c0 13.807 11.193 25 25 25s25-11.193 25-25S38.807 0 25 0 0 11.193 0 25zm47.248 0c0 12.287-9.96 22.248-22.248 22.248-12.287 0-22.248-9.96-22.248-22.248 0-12.287 9.96-22.248 22.248-22.248 12.287 0 22.248 9.96 22.248 22.248z" fill="url(#paint1_linear_735_2053)"/><g filter="url(#filter1_di_735_2053)" fill-rule="evenodd" clip-rule="evenodd"><path d="M23.515 32.07v2.11H11.719l.003-.06c.11-1.983.626-3.425 1.6-4.623.801-.986 1.771-1.723 3.759-2.97-.006.004.704-.441.908-.572 1.07-.686 1.757-1.22 2.3-1.85.681-.79 1.037-1.655 1.037-2.67 0-1.97-1.393-3.335-3.406-3.335-2.335 0-3.536 1.778-3.6 4.451v.056h-2.097l-.003-.055-.023-.484c0-3.575 2.327-5.955 5.823-5.955 3.42 0 5.647 2.076 5.647 5.275 0 1.634-.585 2.957-1.71 4.13-.849.884-1.711 1.485-3.68 2.68l-.027.016-.02.012-.034.02-.263.156v.001l-.373.222c-.94.563-1.51.959-2.013 1.44-.618.591-1.026 1.24-1.222 2.005h9.19zm14.766-4.33v2.097h-2.45v4.343H33.72v-4.343h-7.864v-2.264l7.932-11.46h2.044V27.74h2.45zm-4.561-.007h-5.567l5.567-8.271v8.271z" fill="#fff"/><path d="M23.515 32.07v2.11H11.719l.003-.06c.11-1.983.626-3.425 1.6-4.623.801-.986 1.771-1.723 3.759-2.97-.006.004.704-.441.908-.572 1.07-.686 1.757-1.22 2.3-1.85.681-.79 1.037-1.655 1.037-2.67 0-1.97-1.393-3.335-3.406-3.335-2.335 0-3.536 1.778-3.6 4.451v.056h-2.097l-.003-.055-.023-.484c0-3.575 2.327-5.955 5.823-5.955 3.42 0 5.647 2.076 5.647 5.275 0 1.634-.585 2.957-1.71 4.13-.849.884-1.711 1.485-3.68 2.68l-.027.016-.02.012-.034.02-.263.156v.001l-.373.222c-.94.563-1.51.959-2.013 1.44-.618.591-1.026 1.24-1.222 2.005h9.19zm14.766-4.33v2.097h-2.45v4.343H33.72v-4.343h-7.864v-2.264l7.932-11.46h2.044V27.74h2.45zm-4.561-.007h-5.567l5.567-8.271v8.271z" fill="url(#paint2_radial_735_2053)"/></g><defs><radialGradient id="paint0_radial_735_2053" cx="0" cy="0" r="1" gradientUnits="userSpaceOnUse" gradientTransform="rotate(45.503 -7.798 20.634) scale(52.4146)"><stop stop-color="#444"/><stop offset="1" stop-color="#111"/></radialGradient><radialGradient id="paint2_radial_735_2053" cx="0" cy="0" r="1" gradientUnits="userSpaceOnUse" gradientTransform="matrix(26.56244 18.0664 -16.8027 24.70447 11.719 16.113)"><stop stop-color="#fff" stop-opacity=".5"/><stop offset=".489" stop-color="#fff" stop-opacity=".392"/><stop offset="1" stop-opacity=".12"/></radialGradient><filter id="filter0_d_735_2053" x="-4.121" y="-1.121" width="58.242" height="58.242" filterUnits="userSpaceOnUse" color-interpolation-filters="sRGB"><feFlood flood-opacity="0" result="BackgroundImageFix"/><feColorMatrix in="SourceAlpha" values="0 0 0 0 0 0 0 0 0 0 0 0 0 0 0 0 0 0 127 0" result="hardAlpha"/><feOffset dy="3"/><feGaussianBlur stdDeviation="2.5"/><feColorMatrix values="0 0 0 0 0 0 0 0 0 0 0 0 0 0 0 0 0 0 0.1 0"/><feBlend in2="BackgroundImageFix" result="effect1_dropShadow_735_2053"/><feBlend in="SourceGraphic" in2="effect1_dropShadow_735_2053" result="shape"/></filter><filter id="filter1_di_735_2053" x="3.719" y="10.113" width="42.563" height="34.066" filterUnits="userSpaceOnUse" color-interpolation-filters="sRGB"><feFlood flood-opacity="0" result="BackgroundImageFix"/><feColorMatrix in="SourceAlpha" values="0 0 0 0 0 0 0 0 0 0 0 0 0 0 0 0 0 0 127 0" result="hardAlpha"/><feOffset dy="2"/><feGaussianBlur stdDeviation="4"/><feColorMatrix values="0 0 0 0 0 0 0 0 0 0 0 0 0 0 0 0 0 0 0.24 0"/><feBlend in2="BackgroundImageFix" result="effect1_dropShadow_735_2053"/><feBlend in="SourceGraphic" in2="effect1_dropShadow_735_2053" result="shape"/><feColorMatrix in="SourceAlpha" values="0 0 0 0 0 0 0 0 0 0 0 0 0 0 0 0 0 0 127 0" result="hardAlpha"/><feOffset dy="1"/><feGaussianBlur stdDeviation="2"/><feComposite in2="hardAlpha" operator="arithmetic" k2="-1" k3="1"/><feColorMatrix values="0 0 0 0 1 0 0 0 0 1 0 0 0 0 1 0 0 0 0.5 0"/><feBlend in2="shape" result="effect2_innerShadow_735_2053"/></filter><linearGradient id="paint1_linear_735_2053" x1="-25" y1="25" x2="25" y2="75" gradientUnits="userSpaceOnUse"><stop stop-color="#A3D167"/><stop offset=".509" stop-color="#8DC641"/><stop offset="1" stop-color="#709E34"/></linearGradient></defs></svg>