<svg width="232" height="48" fill="none" xmlns="http://www.w3.org/2000/svg"><path fill-rule="evenodd" clip-rule="evenodd" d="M61.42.21c3.6 0 6.78.794 9.432 2.305 2.69 1.588 4.735 3.818 6.174 6.652 1.44 2.873 2.16 6.274 2.16 10.167 0 4.196-.834 7.862-2.539 10.848-1.666 3.023-4.09 5.215-7.234 6.614 1.629.529 2.954 1.738 4.053 3.515l1.894 2.834c.378.643.606 1.248.606 1.89 0 .794-.303 1.474-.947 1.966-.644.49-1.402.793-2.235.793-.644 0-1.25-.151-1.818-.453a4.231 4.231 0 01-1.402-1.323l-3.105-5.14c-.493-.832-1.137-1.437-1.932-1.814-.796-.378-1.818-.605-3.106-.605-3.674 0-6.818-.794-9.507-2.306-2.69-1.587-4.735-3.817-6.174-6.652-1.44-2.91-2.159-6.312-2.159-10.167 0-3.893.758-7.256 2.159-10.167 1.44-2.872 3.523-5.064 6.174-6.652C54.604.928 57.747.21 61.42.21zm90.716.038c.909 0 1.629.378 2.272 1.171l10.871 13.455L176.112 1.42c.643-.755 1.44-1.133 2.349-1.133.795 0 1.515.302 2.158.944.644.643.947 1.323.947 2.23 0 .68-.264 1.399-.795 2.041l-12.083 14.703v14.702c0 1.096-.303 1.928-.946 2.57-.645.643-1.44.907-2.424.907-1.023 0-1.895-.302-2.538-.907-.645-.605-.948-1.436-.948-2.57V20.204l-12.007-14.74c-.53-.643-.795-1.323-.795-2.041 0-.832.303-1.588.947-2.23.644-.643 1.401-.945 2.159-.945zm-39.809 3.326c-2.235-2.041-5.34-3.024-9.355-3.024H89.904c-1.022 0-1.818.302-2.424.832-.606.567-.909 1.36-.909 2.38v31.03c0 1.059.303 1.89.947 2.533.568.642 1.44.945 2.462.983 1.06 0 1.894-.303 2.538-.945.644-.605.947-1.437.947-2.533V23.416h9.507c4.015 0 7.12-.983 9.355-3.023 2.235-2.003 3.371-4.838 3.371-8.429 0-3.59-1.136-6.425-3.371-8.39zM33.089.248c1.023 0 1.932.302 2.538.945.644.642.947 1.436.947 2.456v31.144c0 1.02-.303 1.89-.947 2.532-.644.642-1.477.945-2.538.945-.985 0-1.818-.303-2.462-.945-.644-.643-.947-1.474-.947-2.532V3.649c0-1.02.303-1.814.947-2.456.644-.643 1.44-.945 2.462-.945zM135.47.739a4.373 4.373 0 00-2.083-.529c-.758 0-1.44.151-2.083.53a3.415 3.415 0 00-1.478 1.624L115.13 33.848a3.728 3.728 0 00-.303 1.398c0 .832.303 1.55.985 2.079.644.53 1.439.831 2.235.831.606 0 1.136-.15 1.628-.453.493-.303.872-.756 1.175-1.399l3.219-7.105h18.635l3.22 7.105c.265.605.682 1.096 1.174 1.399a3.085 3.085 0 001.591.453c.871 0 1.629-.302 2.272-.831.645-.605.986-1.285.986-2.079 0-.491-.114-.907-.266-1.398L136.947 2.364A3.633 3.633 0 00135.47.74zM3.659.286c1.023 0 1.932.302 2.538.944.644.643.947 1.437.947 2.457v28.687h14.885c2.121 0 3.22.945 3.22 2.797 0 1.852-1.099 2.797-3.22 2.797H3.47c-1.022 0-1.818-.303-2.386-.87-.53-.529-.833-1.323-.833-2.305V3.687c0-1.02.303-1.814.947-2.457C1.84.588 2.637.286 3.659.286zm49.58 8.806c1.932-2.343 4.622-3.515 8.106-3.515 3.485 0 6.136 1.134 8.068 3.515 1.932 2.381 2.916 5.707 2.916 10.167 0 4.384-.984 7.786-2.916 10.167-1.932 2.38-4.621 3.552-8.068 3.552-3.447 0-6.174-1.171-8.105-3.552-1.932-2.381-2.917-5.707-2.917-10.167s.985-7.786 2.917-10.167zm80.148-.907l-7.008 15.723h14.053l-7.045-15.723zM93.465 5.879h8.636c4.696 0 7.082 2.079 7.082 6.16 0 4.083-2.386 6.162-7.082 6.162l-8.636-.038V5.879z" fill="#4B4C4B"/><path fill-rule="evenodd" clip-rule="evenodd" d="M195.202 37.106l-.53-.454c-1.288-1.096-1.516-3.1-.342-4.384l13.788-15.723c1.098-1.285 3.105-1.512 4.394-.34l.529.453c1.289 1.096 1.515 3.1.342 4.384l-13.788 15.723c-1.098 1.285-3.03 1.437-4.393.34z" fill="url(#paint0_linear_735_2075)"/><path opacity=".4" fill-rule="evenodd" clip-rule="evenodd" d="M206.261 19.266l-.264-.302-2.121 2.419.227.264c3.636 3.629 2.083 7.295 1.249 8.58l.303-.34c.494-.567 1.251-1.436 2.046-2.381.833-1.437 2.007-4.838-1.44-8.24z" fill="url(#paint1_linear_735_2075)"/><path opacity=".4" fill-rule="evenodd" clip-rule="evenodd" d="M210.808 23.99l.567-.642c.039-.075.114-.15.151-.226-.606.68-1.249 1.398-1.855 2.116.454-.491.834-.907 1.137-1.247z" fill="url(#paint2_radial_735_2075)"/><path fill-rule="evenodd" clip-rule="evenodd" d="M213.459 17.036L199.672 1.313c-1.099-1.285-3.106-1.511-4.393-.34l-.531.454c-1.289 1.096-1.515 3.1-.341 4.384l11.628 13.153.266.302c3.445 3.44 2.272 6.841 1.401 8.277.681-.793 1.363-1.587 2.007-2.305.606-.718 1.251-1.436 1.857-2.117.606-.68 1.173-1.322 1.552-1.738 1.326-1.285 1.515-3.062.341-4.347z" fill="url(#paint3_linear_735_2075)"/><path fill-rule="evenodd" clip-rule="evenodd" d="M212.701 37.106l-.529-.454c-1.289-1.096-1.515-3.1-.342-4.384l13.788-15.723c1.098-1.285 3.105-1.512 4.393-.34l.53.453c1.288 1.096 1.515 3.1.342 4.384l-13.788 15.723c-1.098 1.285-3.03 1.437-4.394.34z" fill="url(#paint4_linear_735_2075)"/><path opacity=".4" fill-rule="evenodd" clip-rule="evenodd" d="M223.912 19.115l-.264-.302-2.121 2.418.226.265c3.636 3.628 2.084 7.295 1.25 8.58l.303-.34c.493-.567 1.251-1.437 2.046-2.382.832-1.436 2.007-4.837-1.44-8.24z" fill="url(#paint5_linear_735_2075)"/><path opacity=".4" fill-rule="evenodd" clip-rule="evenodd" d="M228.268 23.99l.568-.642c.038-.075.114-.15.152-.226-.606.68-1.25 1.398-1.856 2.116.455-.491.872-.907 1.136-1.247z" fill="url(#paint6_radial_735_2075)"/><path fill-rule="evenodd" clip-rule="evenodd" d="M230.92 17.036L217.132 1.313c-1.098-1.285-3.105-1.511-4.393-.34l-.53.454c-1.288 1.096-1.515 3.1-.34 4.384l11.628 13.153.264.302c3.447 3.44 2.272 6.841 1.402 8.277a148.88 148.88 0 012.007-2.305c.606-.718 1.25-1.436 1.856-2.117.606-.68 1.174-1.322 1.554-1.738 1.324-1.285 1.515-3.062.34-4.347z" fill="url(#paint7_linear_735_2075)"/><defs><linearGradient id="paint0_linear_735_2075" x1="199.508" y1="42.013" x2="218.626" y2="32.724" gradientUnits="userSpaceOnUse"><stop stop-color="#1FADC3"/><stop offset=".707" stop-color="#36B98F"/></linearGradient><linearGradient id="paint1_linear_735_2075" x1="206.227" y1="27.145" x2="209.803" y2="26.623" gradientUnits="userSpaceOnUse"><stop stop-color="#123F06" stop-opacity=".01"/><stop offset="1" stop-color="#123F06"/></linearGradient><linearGradient id="paint3_linear_735_2075" x1="186.423" y1="21.044" x2="209.617" y2="29.077" gradientUnits="userSpaceOnUse"><stop stop-color="#9FDB57"/><stop offset="1" stop-color="#71CA5E"/></linearGradient><linearGradient id="paint4_linear_735_2075" x1="216.991" y1="42.023" x2="236.109" y2="32.733" gradientUnits="userSpaceOnUse"><stop stop-color="#1FADC3"/><stop offset=".707" stop-color="#36B98F"/></linearGradient><linearGradient id="paint5_linear_735_2075" x1="223.877" y1="26.993" x2="227.453" y2="26.471" gradientUnits="userSpaceOnUse"><stop stop-color="#123F06" stop-opacity=".01"/><stop offset="1" stop-color="#123F06"/></linearGradient><linearGradient id="paint7_linear_735_2075" x1="203.895" y1="21.051" x2="227.089" y2="29.084" gradientUnits="userSpaceOnUse"><stop stop-color="#9FDB57"/><stop offset="1" stop-color="#71CA5E"/></linearGradient><radialGradient id="paint2_radial_735_2075" cx="0" cy="0" r="1" gradientUnits="userSpaceOnUse" gradientTransform="matrix(9.23506 0 0 10.5317 203.21 25.956)"><stop offset=".418" stop-color="#123F06" stop-opacity=".01"/><stop offset="1" stop-color="#123F06"/></radialGradient><radialGradient id="paint6_radial_735_2075" cx="0" cy="0" r="1" gradientUnits="userSpaceOnUse" gradientTransform="matrix(9.23506 0 0 10.5317 220.687 25.956)"><stop offset=".418" stop-color="#123F06" stop-opacity=".01"/><stop offset="1" stop-color="#123F06"/></radialGradient></defs></svg>