<svg width="24" height="20" fill="none" xmlns="http://www.w3.org/2000/svg"><g filter="url(#filter0_dd_677_1794)"><path d="M16.385 4.15a.52.52 0 00-.731 0l-4.747 4.704-2.56-2.537a.52.52 0 00-.732 0l-1.463 1.45a.51.51 0 000 .725c1.466 1.453 2.918 2.908 4.38 4.358.203.2.53.2.732 0l.001-.001.008-.007 6.576-6.517a.51.51 0 000-.725l-1.464-1.45z" fill="url(#paint0_linear_677_1794)"/></g><defs><linearGradient id="paint0_linear_677_1794" x1="18.117" y1="4" x2="5.828" y2="4.241" gradientUnits="userSpaceOnUse"><stop stop-color="#97D759"/><stop offset="1" stop-color="#20ADC2"/></linearGradient><filter id="filter0_dd_677_1794" x="-2" y="0" width="28" height="25" filterUnits="userSpaceOnUse" color-interpolation-filters="sRGB"><feFlood flood-opacity="0" result="BackgroundImageFix"/><feColorMatrix in="SourceAlpha" values="0 0 0 0 0 0 0 0 0 0 0 0 0 0 0 0 0 0 127 0" result="hardAlpha"/><feOffset dy="1"/><feGaussianBlur stdDeviation="1"/><feComposite in2="hardAlpha" operator="out"/><feColorMatrix values="0 0 0 0 0.866667 0 0 0 0 0.87451 0 0 0 0 0.952941 0 0 0 1 0"/><feBlend mode="multiply" in2="BackgroundImageFix" result="effect1_dropShadow_677_1794"/><feColorMatrix in="SourceAlpha" values="0 0 0 0 0 0 0 0 0 0 0 0 0 0 0 0 0 0 127 0" result="hardAlpha"/><feOffset dy="4"/><feGaussianBlur stdDeviation="4"/><feComposite in2="hardAlpha" operator="out"/><feColorMatrix values="0 0 0 0 0.866667 0 0 0 0 0.87451 0 0 0 0 0.952941 0 0 0 0.75 0"/><feBlend mode="multiply" in2="effect1_dropShadow_677_1794" result="effect2_dropShadow_677_1794"/><feBlend in="SourceGraphic" in2="effect2_dropShadow_677_1794" result="shape"/></filter></defs></svg>