<svg width="65" height="50" fill="none" xmlns="http://www.w3.org/2000/svg"><path d="M63.36 49.322v.128h.12a.126.126 0 00.065-.016.057.057 0 00.024-.05.055.055 0 00-.024-.047.116.116 0 00-.064-.016h-.12zm.122-.091a.223.223 0 01.144.042.14.14 0 01.05.113.13.13 0 01-.04.1.197.197 0 01-.115.048l.16.184h-.123l-.148-.182h-.048v.181h-.104v-.486h.225-.001zm-.032.654a.414.414 0 00.373-.248.416.416 0 000-.318.42.42 0 00-.215-.215.423.423 0 00-.319 0 .41.41 0 00-.131.087.415.415 0 000 .578.412.412 0 00.292.12v-.004zm0-.928a.538.538 0 01.491.32.516.516 0 01-.114.574.524.524 0 01-.378.154.533.533 0 01-.535-.53.518.518 0 01.326-.482.533.533 0 01.211-.042l-.001.005zm-49.203-1.878c0-.927.607-1.689 1.6-1.689.948 0 1.588.73 1.588 1.689 0 .96-.64 1.689-1.588 1.689-.993 0-1.6-.762-1.6-1.689zm4.27 0v-2.638H17.37v.642c-.364-.474-.916-.772-1.666-.772-1.478 0-2.638 1.16-2.638 2.77s1.16 2.769 2.638 2.769c.75 0 1.302-.298 1.666-.773v.64h1.145V47.08h.002zm38.75 0c0-.927.607-1.689 1.6-1.689.95 0 1.59.73 1.59 1.689 0 .96-.64 1.689-1.59 1.689-.992 0-1.6-.762-1.6-1.689zm4.271 0v-4.756h-1.147v2.76c-.364-.474-.916-.772-1.666-.772-1.478 0-2.638 1.16-2.638 2.77s1.159 2.769 2.638 2.769c.75 0 1.302-.298 1.666-.773v.64h1.147V47.08zm-28.787-1.743c.739 0 1.213.463 1.334 1.28H31.35c.122-.762.585-1.28 1.402-1.28zm.023-1.028c-1.546 0-2.627 1.124-2.627 2.77 0 1.676 1.124 2.769 2.703 2.769.795 0 1.522-.198 2.162-.74l-.562-.849a2.515 2.515 0 01-1.534.552c-.74 0-1.412-.343-1.577-1.292h3.916c.01-.143.023-.287.023-.44-.012-1.645-1.029-2.77-2.505-2.77zm13.845 2.77c0-.928.608-1.69 1.6-1.69.949 0 1.589.73 1.589 1.69 0 .959-.64 1.688-1.589 1.688-.992 0-1.6-.762-1.6-1.689zm4.27 0V44.44h-1.146v.642c-.365-.474-.916-.772-1.666-.772-1.478 0-2.638 1.16-2.638 2.77s1.16 2.769 2.638 2.769c.75 0 1.3-.298 1.666-.773v.64h1.146v-2.638zm-10.746 0c0 1.599 1.114 2.769 2.813 2.769.795 0 1.324-.177 1.896-.63l-.55-.926c-.431.31-.883.475-1.382.475-.916-.012-1.589-.673-1.589-1.689 0-1.015.673-1.677 1.589-1.689.498 0 .95.166 1.382.475l.55-.927c-.573-.452-1.102-.629-1.895-.629-1.7 0-2.814 1.17-2.814 2.77zm14.785-2.77c-.662 0-1.093.309-1.39.772v-.64H52.4v5.275h1.148v-2.957c0-.872.375-1.357 1.124-1.357.246-.004.49.041.718.132l.353-1.08a2.44 2.44 0 00-.817-.145zm-30.741.552c-.552-.364-1.313-.552-2.151-.552-1.336 0-2.197.64-2.197 1.689 0 .86.64 1.39 1.82 1.556l.542.077c.629.088.926.254.926.551 0 .408-.418.64-1.202.64-.795 0-1.368-.253-1.755-.55l-.538.893c.628.464 1.423.685 2.283.685 1.523 0 2.406-.717 2.406-1.721 0-.928-.695-1.412-1.843-1.578l-.54-.078c-.497-.065-.894-.165-.894-.518 0-.386.375-.618 1.004-.618.673 0 1.325.254 1.644.453l.497-.928h-.003zm14.797-.55c-.661 0-1.092.309-1.389.772v-.641H36.46v5.274h1.147v-2.957c0-.872.375-1.357 1.124-1.357.246-.004.49.041.718.132l.353-1.08a2.44 2.44 0 00-.817-.145v.001zm-9.786.13h-1.875v-1.6h-1.16v1.6h-1.07v1.049h1.07v2.406c0 1.223.475 1.952 1.832 1.952.497 0 1.07-.154 1.434-.407l-.33-.982c-.343.198-.718.298-1.016.298-.573 0-.76-.354-.76-.883V45.49h1.875v-1.05zm-17.146 5.276v-3.31c0-1.246-.795-2.085-2.075-2.096-.674-.012-1.368.198-1.854.938-.364-.585-.937-.938-1.743-.938-.563 0-1.114.165-1.545.783v-.652H3.688v5.274h1.156V46.79c0-.915.508-1.402 1.292-1.402.762 0 1.147.497 1.147 1.39v2.936h1.16V46.79c0-.916.529-1.402 1.29-1.402.783 0 1.157.496 1.157 1.39v2.935l1.162.003z" fill="#231F20"/><path d="M64.015 32.173v-.771h-.201l-.233.53-.23-.53h-.202v.771h.143v-.58l.217.5h.148l.217-.502v.582h.141zm-1.274 0v-.64h.257v-.13h-.657v.13h.257v.64h.143z" fill="#F79410"/><path d="M41.188 35.48h-17.38V4.247h17.38V35.48z" fill="#FF5F00"/><path d="M24.91 19.864c0-6.336 2.967-11.98 7.586-15.617A19.777 19.777 0 0020.221 0C9.251 0 .36 8.893.36 19.864c0 10.97 8.892 19.864 19.861 19.864a19.777 19.777 0 0012.275-4.247c-4.619-3.637-7.586-9.281-7.586-15.617z" fill="#EB001B"/><path d="M64.635 19.864c0 10.97-8.892 19.864-19.861 19.864a19.783 19.783 0 01-12.277-4.247c4.62-3.637 7.587-9.28 7.587-15.617 0-6.336-2.966-11.98-7.587-15.617A19.783 19.783 0 0144.773 0c10.97 0 19.862 8.893 19.862 19.864" fill="#F79E1B"/></svg>