<svg width="16" height="16" fill="none" xmlns="http://www.w3.org/2000/svg"><path fill-rule="evenodd" clip-rule="evenodd" d="M12.82 4.81c.049-.015.113.015.176.099l2.878 2.804c.168.167.168.42 0 .545l-2.878 2.847c-.063.084-.127.104-.175.079-.049-.026-.08-.1-.08-.206V4.992c0-.104.031-.167.08-.182zm-9.64 6.38c-.049.015-.113-.015-.176-.099L.126 8.287c-.168-.167-.168-.42 0-.545l2.878-2.847c.063-.084.127-.104.175-.079.049.026.08.1.08.206v5.986c0 .104-.031.167-.08.182zm7.93-8.182L8.26.128c-.13-.17-.38-.17-.55 0l-2.8 2.88c-.08.06-.12.13-.1.17.02.05.08.08.18.08h1.15c.21 0 .38.17.38.38v2.33c0 .21.17.38.38.38h2.2c.21 0 .38-.17.38-.38v-2.33c0-.21.17-.38.38-.38h1.12c.1 0 .18-.03.2-.08.03-.04.01-.11-.07-.17zm-6.222 9.985l2.85 2.88c.13.17.38.17.55 0l2.8-2.88c.08-.06.12-.13.1-.17-.02-.05-.08-.08-.18-.08h-1.15a.38.38 0 01-.38-.38v-2.33a.38.38 0 00-.38-.38h-2.2a.38.38 0 00-.38.38v2.33c0 .21-.17.38-.38.38h-1.12c-.1 0-.18.03-.2.08-.03.04-.01.11.07.17z" fill="#ED1C24"/></svg>