<svg width="155" height="50" fill="none" xmlns="http://www.w3.org/2000/svg"><path d="M66.813 49.167H54.237L62.097.863h12.577l-7.861 48.304zM43.657.863l-11.99 33.224-1.418-7.155.001.003-4.23-21.723S25.507.863 20.053.863H.233L0 1.681s6.061 1.261 13.155 5.521L24.08 49.168h13.103L57.192.863H43.657zm98.916 48.304h11.547L144.052.862h-10.109c-4.668 0-5.805 3.6-5.805 3.6l-18.756 44.705h13.109l2.622-7.175H141.1l1.473 7.175zM128.735 32.08l6.607-18.076 3.718 18.076h-10.325zm-18.37-19.601l1.795-10.373S106.622 0 100.849 0c-6.24 0-21.061 2.728-21.061 15.99 0 12.48 17.394 12.635 17.394 19.19 0 6.554-15.602 5.38-20.751 1.247l-1.87 10.845S80.177 50 88.756 50c8.582 0 21.529-4.444 21.529-16.538 0-12.559-17.55-13.728-17.55-19.188 0-5.462 12.249-4.76 17.63-1.795z" fill="#2566AF"/></svg>