<svg width="18" height="12" fill="none" xmlns="http://www.w3.org/2000/svg"><path fill-rule="evenodd" clip-rule="evenodd" d="M.127 1.297A1.995 1.995 0 000 2v8.003A2 2 0 002 12h14a2 2 0 002-2V2c0-.247-.045-.484-.127-.703l-7.72 5.148a2.077 2.077 0 01-2.305 0L.127 1.297zM1.043.244l7.573 5.049a.692.692 0 00.768 0l7.573-5.05A1.99 1.99 0 0016 0H1.987a1.99 1.99 0 00-.944.244z" fill="url(#paint0_radial_800_562)"/><path fill-rule="evenodd" clip-rule="evenodd" d="M9.384 5.293l7.573-5.05A1.99 1.99 0 0016.013 0H1.987a1.99 1.99 0 00-.944.244l7.573 5.049a.692.692 0 00.768 0z" fill="url(#paint1_radial_800_562)"/><path fill-rule="evenodd" clip-rule="evenodd" d="M17.873 1.297c.082.219.127.456.127.703v8a2 2 0 01-2 2H2a2 2 0 01-2-1.996V1.993c0-.244.046-.479.127-.696l7.72 5.148a2.077 2.077 0 002.305 0l7.721-5.148z" fill="url(#paint2_radial_800_562)"/><defs><radialGradient id="paint0_radial_800_562" cx="0" cy="0" r="1" gradientUnits="userSpaceOnUse" gradientTransform="matrix(-18 11.99997 -10.3381 -15.50718 18 0)"><stop stop-color="#0D82DA"/><stop offset=".779" stop-color="#165E94"/></radialGradient><radialGradient id="paint1_radial_800_562" cx="0" cy="0" r="1" gradientUnits="userSpaceOnUse" gradientTransform="matrix(-18 11.99997 -10.3381 -15.50718 18 0)"><stop stop-color="#0D82DA"/><stop offset=".779" stop-color="#165E94"/></radialGradient><radialGradient id="paint2_radial_800_562" cx="0" cy="0" r="1" gradientUnits="userSpaceOnUse" gradientTransform="matrix(-18 11.99997 -10.3381 -15.50718 18 0)"><stop stop-color="#0D82DA"/><stop offset=".779" stop-color="#165E94"/></radialGradient></defs></svg>