<svg width="18" height="18" fill="none" xmlns="http://www.w3.org/2000/svg"><path d="M0 2.25A2.25 2.25 0 012.25 0h2.975c1.1 0 2.039.795 2.22 1.88l.415 2.49a2.115 2.115 0 01-1.418 2.355l-.542.18a.45.45 0 00-.292.546l.565 2.068a3.538 3.538 0 002.294 2.425l1.373.458a.45.45 0 00.517-.178l.656-.983a2.25 2.25 0 012.584-.887l2.865.955A2.25 2.25 0 0118 13.443v2.308A2.25 2.25 0 0115.75 18h-1.8C6.246 18 0 11.756 0 4.055V2.249z" fill="url(#paint0_radial_793_110)"/><defs><radialGradient id="paint0_radial_793_110" cx="0" cy="0" r="1" gradientUnits="userSpaceOnUse" gradientTransform="rotate(135 9 3.728) scale(25.4558 23.7579)"><stop stop-color="#0D82DA"/><stop offset=".779" stop-color="#165E94"/></radialGradient></defs></svg>