<svg width="210" height="40" fill="none" xmlns="http://www.w3.org/2000/svg"><path d="M24.323 5.244a4.358 4.358 0 00.025-1.704c-.31-1.722-1.71-3.122-3.462-3.456-2.83-.538-5.306 1.572-5.306 4.25 0 .31.033.615.097.908.22 1.016-.323 2.025-1.322 2.369C7.739 9.888 3 16.066 3 23.333c0 9.553 8.203 17.236 18.086 16.634 8.158-.497 14.925-6.796 15.81-14.762.896-8.066-4.083-15.13-11.26-17.597-.996-.342-1.533-1.352-1.313-2.364zm-4.78-3.134c1.623-.306 3.025 1.063 2.72 2.662-.169.888-.91 1.615-1.815 1.78-1.631.299-3.028-1.076-2.716-2.666.174-.883.91-1.606 1.812-1.776zm8.148 28.763C25.637 32.893 22.904 34 20 34c-2.91 0-5.644-1.107-7.698-3.127-2.06-2.013-3.189-4.693-3.189-7.54a10.47 10.47 0 013.19-7.546A10.927 10.927 0 0120 12.66c2.904 0 5.637 1.113 7.69 3.127a10.473 10.473 0 013.19 7.546c0 2.847-1.129 5.527-3.19 7.54z" fill="#8B1D1E"/><path d="M16.506 22.332v-.962h.715v-4.408h-.715V16h2.46v.962h-.72v4.408h.72v.962h-2.46zM20.014 16h1.971c.352 0 .67.067.955.2.29.133.535.332.737.598.207.26.365.59.474.989.114.393.17.853.17 1.379s-.056.989-.17 1.388a2.81 2.81 0 01-.474.989c-.201.26-.447.456-.737.59a2.245 2.245 0 01-.955.199h-1.971V16zm1.971 5.27c.383 0 .686-.13.908-.39.228-.266.342-.67.342-1.215v-.998c0-.544-.114-.947-.342-1.207-.222-.266-.525-.399-.908-.399h-.947v4.21h.947zM16 23.56h1.971c.352 0 .67.066.955.199.29.133.536.333.738.599.207.26.364.59.473.988.114.393.17.853.17 1.38 0 .525-.056.988-.17 1.387a2.81 2.81 0 01-.473.989c-.202.26-.448.456-.738.59-.284.133-.603.2-.954.2H16v-6.333zm1.971 5.27c.384 0 .686-.13.909-.39.227-.266.341-.672.341-1.216v-.998c0-.544-.114-.946-.341-1.206-.223-.266-.525-.4-.909-.4h-.946v4.21h.947zM22.966 30c-.465 0-.861-.097-1.187-.29a2.877 2.877 0 01-.83-.762l.69-.78c.186.254.393.447.621.58.233.133.489.2.768.2.316 0 .554-.079.715-.236.16-.163.24-.381.24-.653a.818.818 0 00-.155-.517c-.104-.133-.298-.23-.582-.29l-.512-.091c-1.082-.2-1.623-.814-1.623-1.842 0-.284.044-.541.132-.77a1.667 1.667 0 011.009-.962 2.34 2.34 0 01.823-.136c.409 0 .766.078 1.071.235.305.158.567.39.784.699l-.698.77a1.697 1.697 0 00-.49-.47c-.19-.122-.431-.182-.721-.182-.295 0-.518.066-.668.2-.145.126-.217.308-.217.544 0 .242.06.42.178.535.12.115.31.2.575.254l.504.109c.549.115.952.32 1.211.617.264.29.396.698.396 1.224 0 .303-.047.578-.14.826a1.77 1.77 0 01-.396.635 1.74 1.74 0 01-.636.408 2.364 2.364 0 01-.862.145zM45 28h1.33v-1.524h5.474V28h1.33v-2.768h-1v-7.036H46.45c0 3.475-.354 5.475-.646 7.036H45V28zm2.195-2.768c.317-1.89.537-3.17.622-5.793h2.988v5.793h-3.61zm11.015 1.427a4.238 4.238 0 004.354-4.33A4.238 4.238 0 0058.21 18c-2.524-.036-4.377 1.964-4.34 4.33-.037 2.365 1.816 4.365 4.34 4.329zm0-1.256c-1.804 0-2.975-1.33-2.975-3.073 0-1.732 1.17-3.086 2.975-3.086 1.83 0 2.976 1.354 2.976 3.085 0 1.744-1.146 3.074-2.976 3.074zm5.997 1.073h1.317v-6.28l2.024 3.072h1.207l2.025-3.073v6.28h1.317v-8.28h-1.549l-2.402 3.695v-.012l-2.39-3.682h-1.55v8.28zm13.879.183a4.238 4.238 0 004.353-4.33A4.238 4.238 0 0078.087 18c-2.524-.036-4.378 1.964-4.341 4.33-.037 2.365 1.817 4.365 4.341 4.329zm0-1.256c-1.805 0-2.975-1.33-2.975-3.073 0-1.732 1.17-3.086 2.975-3.086 1.83 0 2.975 1.354 2.975 3.085 0 1.744-1.146 3.074-2.975 3.074zM87.192 28h1.244v-1.378c2.256-.28 3.731-2.097 3.731-4.293 0-2.39-1.756-4.329-4.353-4.329-2.597 0-4.341 1.94-4.341 4.33 0 2.195 1.463 4.012 3.72 4.292V28zm0-2.646c-1.475-.268-2.353-1.512-2.353-3.024 0-1.525.877-2.756 2.353-3.025v6.049zm1.244 0v-6.049c1.475.269 2.353 1.5 2.353 3.024 0 1.513-.877 2.756-2.353 3.025zm9.109 1.305a4.237 4.237 0 004.353-4.33A4.237 4.237 0 0097.545 18c-2.524-.036-4.378 1.964-4.341 4.33-.037 2.365 1.817 4.365 4.34 4.329zm0-1.256c-1.805 0-2.976-1.33-2.976-3.073 0-1.732 1.171-3.086 2.976-3.086 1.829 0 2.975 1.354 2.975 3.085 0 1.744-1.146 3.074-2.975 3.074zm11.63-7.207v3.243h-4.304v-3.243h-1.33v8.28h1.33v-3.793h4.304v3.793h1.329v-8.28h-1.329zm9.158 0v3.243h-4.305v-3.243h-1.329v8.28h1.329v-3.793h4.305v3.793h1.329v-8.28h-1.329zm3.524 8.28h3.609c1.635 0 2.927-.769 2.927-2.512 0-1.744-1.195-2.464-2.927-2.464h-2.28v-3.304h-1.329v8.28zm7.146 0h1.329v-8.28h-1.329v8.28zm-5.841-1.244v-2.549h2.207c.683 0 1.622.146 1.622 1.256s-.939 1.293-1.622 1.293h-2.207zm10.694 0v-2.549h3.756V21.44h-3.756v-2h4.72v-1.243h-6.049v8.28h6.122v-1.244h-4.793zm13.687 1.427c1.866 0 2.719-.634 2.915-.744v-1.427c-.708.598-1.83.915-2.915.915-2.012 0-3.195-1.33-3.195-3.073 0-1.732 1.183-3.086 3.195-3.086 1.451 0 2.61.769 2.683.89v-1.402c-.427-.293-1.317-.732-2.683-.732-2.719-.036-4.609 1.964-4.573 4.33-.036 2.365 1.854 4.365 4.573 4.329zm4.562-.183h1.427l4.292-6.39v6.39h1.317v-8.28h-1.439l-4.28 6.28v-6.28h-1.317v8.28zm13.253.183c1.866 0 2.72-.634 2.915-.744v-1.427c-.707.598-1.829.915-2.915.915-2.012 0-3.195-1.33-3.195-3.073 0-1.732 1.183-3.086 3.195-3.086 1.452 0 2.61.769 2.683.89v-1.402c-.427-.293-1.317-.732-2.683-.732-2.719-.036-4.609 1.964-4.572 4.33-.037 2.365 1.853 4.365 4.572 4.329zm6.617-.183h1.317v-7.037h2.902v-1.243h-7.121v1.243h2.902v7.037zm7.134-1.244v-2.549h3.756V21.44h-3.756v-2h4.72v-1.243h-6.049v8.28h6.122v-1.244h-4.793zm6.495 1.244h1.317v-6.28l2.025 3.072h1.207l2.024-3.073v6.28h1.317v-8.28h-1.549l-2.402 3.695v-.012l-2.39-3.682h-1.549v8.28zm10.087 0h3.609c1.635 0 2.927-.769 2.927-2.512 0-1.744-1.195-2.464-2.927-2.464h-2.28v-3.304h-1.329v8.28zm7.146 0h1.329v-8.28h-1.329v8.28zm-5.841-1.244v-2.549h2.207c.683 0 1.622.146 1.622 1.256s-.939 1.293-1.622 1.293h-2.207z" fill="#165E94"/></svg>