<svg width="300" height="60" viewBox="0 0 300 60" fill="none" xmlns="http://www.w3.org/2000/svg">
<path d="M34.5867 7.86663C34.7586 7.05932 34.7815 6.19702 34.6246 5.31034C34.1677 2.72701 32.1085 0.626605 29.5331 0.126686C25.3716 -0.681135 21.73 2.48397 21.73 6.49997C21.73 6.96727 21.7792 7.42323 21.8725 7.8629C22.196 9.38634 21.3977 10.9002 19.9283 11.4161C10.1992 14.832 3.23 24.099 3.23 35C3.23 49.3283 15.2933 60.8538 29.8273 59.9502C41.8244 59.2043 51.7749 49.757 53.0767 37.8075C54.3948 25.709 47.072 15.1138 36.5173 11.4119C35.0538 10.8985 34.2637 9.38356 34.5867 7.86663ZM27.559 3.1647C29.9439 2.70554 32.0061 4.75938 31.5585 7.15807C31.3099 8.49 30.2202 9.57982 28.8883 9.82842C26.4896 10.2761 24.4356 8.21401 24.8947 5.82912C25.1498 4.50377 26.2337 3.41987 27.559 3.1647ZM39.54 46.31C36.52 49.34 32.5 51 28.23 51C23.95 51 19.93 49.34 16.91 46.31C13.88 43.29 12.22 39.27 12.22 35C12.22 30.72 13.88 26.7 16.91 23.68C19.93 20.66 23.95 18.99 28.23 18.99C32.5 18.99 36.52 20.66 39.54 23.68C42.57 26.7 44.23 30.72 44.23 35C44.23 39.27 42.57 43.29 39.54 46.31Z" fill="#8B1D1E"/>
<path d="M21.574 34.0454V32.6717H22.7641V26.3737H21.574V25H25.6749V26.3737H24.4718V32.6717H25.6749V34.0454H21.574Z" fill="#165E94"/>
<path d="M27.4194 25H30.7053C31.2918 25 31.8222 25.095 32.2965 25.2851C32.7795 25.4752 33.1892 25.7603 33.5255 26.1404C33.8705 26.5119 34.1335 26.9827 34.3147 27.5529C34.5044 28.1145 34.5993 28.7711 34.5993 29.5227C34.5993 30.2743 34.5044 30.9352 34.3147 31.5054C34.1335 32.067 33.8705 32.5378 33.5255 32.9179C33.1892 33.2894 32.7795 33.5702 32.2965 33.7603C31.8222 33.9503 31.2918 34.0454 30.7053 34.0454H27.4194V25ZM30.7053 32.5292C31.3435 32.5292 31.8481 32.3434 32.2189 31.9719C32.5984 31.5918 32.7881 31.013 32.7881 30.2354V28.8099C32.7881 28.0324 32.5984 27.4579 32.2189 27.0864C31.8481 26.7063 31.3435 26.5162 30.7053 26.5162H29.1271V32.5292H30.7053Z" fill="#165E94"/>
<path d="M20.73 35.7991H24.0159C24.6024 35.7991 25.1328 35.8942 25.6071 36.0842C26.0901 36.2743 26.4998 36.5594 26.8361 36.9395C27.1811 37.311 27.4441 37.7819 27.6252 38.3521C27.815 38.9136 27.9098 39.5702 27.9098 40.3218C27.9098 41.0734 27.815 41.7343 27.6252 42.3045C27.4441 42.8661 27.1811 43.3369 26.8361 43.7171C26.4998 44.0886 26.0901 44.3693 25.6071 44.5594C25.1328 44.7495 24.6024 44.8445 24.0159 44.8445H20.73V35.7991ZM24.0159 43.3283C24.6541 43.3283 25.1587 43.1425 25.5295 42.7711C25.909 42.3909 26.0987 41.8121 26.0987 41.0346V39.6091C26.0987 38.8315 25.909 38.257 25.5295 37.8855C25.1587 37.5054 24.6541 37.3153 24.0159 37.3153H22.4376V43.3283H24.0159Z" fill="#165E94"/>
<path d="M32.3406 45C31.5644 45 30.9046 44.8618 30.3613 44.5853C29.8266 44.3089 29.3652 43.946 28.9771 43.4968L30.1284 42.3823C30.4389 42.7451 30.7839 43.0216 31.1634 43.2117C31.5515 43.4017 31.9784 43.4968 32.4441 43.4968C32.9702 43.4968 33.3669 43.3844 33.6343 43.1598C33.9016 42.9266 34.0353 42.6155 34.0353 42.2268C34.0353 41.9244 33.9491 41.6782 33.7766 41.4881C33.6041 41.2981 33.2807 41.1598 32.8063 41.0734L31.9525 40.9438C30.15 40.6587 29.2487 39.7819 29.2487 38.3132C29.2487 37.9071 29.322 37.54 29.4687 37.2117C29.6239 36.8834 29.8438 36.6026 30.1284 36.3693C30.413 36.1361 30.7537 35.959 31.1504 35.838C31.5558 35.7084 32.0129 35.6436 32.5217 35.6436C33.203 35.6436 33.7981 35.7559 34.307 35.9806C34.8158 36.2052 35.2513 36.5378 35.6136 36.9784L34.4493 38.0799C34.225 37.8035 33.9534 37.5788 33.6343 37.406C33.3152 37.2333 32.9141 37.1469 32.4312 37.1469C31.9396 37.1469 31.5687 37.2419 31.3186 37.432C31.0771 37.6134 30.9564 37.8726 30.9564 38.2095C30.9564 38.5551 31.0556 38.8099 31.2539 38.9741C31.4523 39.1382 31.7714 39.2592 32.2112 39.3369L33.0521 39.4924C33.9663 39.6566 34.639 39.9503 35.0702 40.3736C35.5101 40.7883 35.73 41.3715 35.73 42.1231C35.73 42.5551 35.6524 42.9482 35.4971 43.3024C35.3505 43.6479 35.1306 43.9503 34.8374 44.2095C34.5528 44.46 34.1992 44.6544 33.7766 44.7927C33.3626 44.9309 32.8839 45 32.3406 45Z" fill="#165E94"/>
<path d="M64.23 44.5001H66.41V42.0001H75.39V44.5001H77.57V39.9601H75.93V28.4201H66.61C66.61 34.1201 66.03 37.4001 65.55 39.9601H64.23V44.5001ZM67.83 39.9601C68.35 36.8601 68.71 34.7601 68.85 30.4601H73.75V39.9601H67.83Z" fill="#165E94"/>
<path d="M85.8961 42.3001C90.0361 42.3601 93.0961 39.0801 93.0361 35.2001C93.0961 31.3201 90.0361 28.0401 85.8961 28.1001C81.7561 28.0401 78.7161 31.3201 78.7761 35.2001C78.7161 39.0801 81.7561 42.3601 85.8961 42.3001ZM85.8961 40.2401C82.9361 40.2401 81.0161 38.0601 81.0161 35.2001C81.0161 32.3601 82.9361 30.1401 85.8961 30.1401C88.8961 30.1401 90.7761 32.3601 90.7761 35.2001C90.7761 38.0601 88.8961 40.2401 85.8961 40.2401Z" fill="#165E94"/>
<path d="M95.7308 42.0001H97.8908V31.7001L101.211 36.7401H103.191L106.511 31.7001V42.0001H108.671V28.4201H106.131L102.191 34.4801V34.4601L98.2708 28.4201H95.7308V42.0001Z" fill="#165E94"/>
<path d="M118.494 42.3001C122.634 42.3601 125.694 39.0801 125.634 35.2001C125.694 31.3201 122.634 28.0401 118.494 28.1001C114.354 28.0401 111.314 31.3201 111.374 35.2001C111.314 39.0801 114.354 42.3601 118.494 42.3001ZM118.494 40.2401C115.534 40.2401 113.614 38.0601 113.614 35.2001C113.614 32.3601 115.534 30.1401 118.494 30.1401C121.494 30.1401 123.374 32.3601 123.374 35.2001C123.374 38.0601 121.494 40.2401 118.494 40.2401Z" fill="#165E94"/>
<path d="M133.428 44.5001H135.468V42.2401C139.168 41.7801 141.588 38.8001 141.588 35.2001C141.588 31.2801 138.708 28.1001 134.448 28.1001C130.188 28.1001 127.328 31.2801 127.328 35.2001C127.328 38.8001 129.728 41.7801 133.428 42.2401V44.5001ZM133.428 40.1601C131.008 39.7201 129.568 37.6801 129.568 35.2001C129.568 32.7001 131.008 30.6801 133.428 30.2401V40.1601ZM135.468 40.1601V30.2401C137.888 30.6801 139.328 32.7001 139.328 35.2001C139.328 37.6801 137.888 39.7201 135.468 40.1601Z" fill="#165E94"/>
<path d="M150.408 42.3001C154.548 42.3601 157.608 39.0801 157.548 35.2001C157.608 31.3201 154.548 28.0401 150.408 28.1001C146.268 28.0401 143.228 31.3201 143.288 35.2001C143.228 39.0801 146.268 42.3601 150.408 42.3001ZM150.408 40.2401C147.448 40.2401 145.528 38.0601 145.528 35.2001C145.528 32.3601 147.448 30.1401 150.408 30.1401C153.408 30.1401 155.288 32.3601 155.288 35.2001C155.288 38.0601 153.408 40.2401 150.408 40.2401Z" fill="#165E94"/>
<path d="M169.483 28.4201V33.7401H162.423V28.4201H160.243V42.0001H162.423V35.7801H169.483V42.0001H171.663V28.4201H169.483Z" fill="#165E94"/>
<path d="M184.502 28.4201V33.7401H177.442V28.4201H175.262V42.0001H177.442V35.7801H184.502V42.0001H186.682V28.4201H184.502Z" fill="#165E94"/>
<path d="M190.002 42.0001H192.182V28.4201H190.002V42.0001Z" fill="#165E94"/>
<path d="M206.409 42.3001C209.469 42.3001 210.869 41.2601 211.189 41.0801V38.7401C210.029 39.7201 208.189 40.2401 206.409 40.2401C203.109 40.2401 201.169 38.0601 201.169 35.2001C201.169 32.3601 203.109 30.1401 206.409 30.1401C208.789 30.1401 210.689 31.4001 210.809 31.6001V29.3001C210.109 28.8201 208.649 28.1001 206.409 28.1001C201.949 28.0401 198.849 31.3201 198.909 35.2001C198.849 39.0801 201.949 42.3601 206.409 42.3001Z" fill="#165E94"/>
<path d="M213.891 42.0001H216.231L223.271 31.5201V42.0001H225.431V28.4201H223.071L216.051 38.7201V28.4201H213.891V42.0001Z" fill="#165E94"/>
<path d="M235.628 42.3001C238.688 42.3001 240.088 41.2601 240.408 41.0801V38.7401C239.248 39.7201 237.408 40.2401 235.628 40.2401C232.328 40.2401 230.388 38.0601 230.388 35.2001C230.388 32.3601 232.328 30.1401 235.628 30.1401C238.008 30.1401 239.908 31.4001 240.028 31.6001V29.3001C239.328 28.8201 237.868 28.1001 235.628 28.1001C231.168 28.0401 228.068 31.3201 228.128 35.2001C228.068 39.0801 231.168 42.3601 235.628 42.3001Z" fill="#165E94"/>
<path d="M246.479 42.0001H248.639V30.4601H253.399V28.4201H241.719V30.4601H246.479V42.0001Z" fill="#165E94"/>
<path d="M258.18 39.9601V35.7801H264.34V33.7401H258.18V30.4601H265.92V28.4201H256V42.0001H266.04V39.9601H258.18Z" fill="#165E94"/>
<path d="M268.832 42.0001H270.992V31.7001L274.312 36.7401H276.292L279.612 31.7001V42.0001H281.772V28.4201H279.232L275.292 34.4801V34.4601L271.372 28.4201H268.832V42.0001Z" fill="#165E94"/>
<path d="M285.23 42.0001H287.57L294.61 31.5201V42.0001H296.77V28.4201H294.41L287.39 38.7201V28.4201H285.23V42.0001Z" fill="#165E94"/>
</svg>
