<svg width="330" height="60" fill="none" xmlns="http://www.w3.org/2000/svg"><path d="M36.357 7.867c.172-.808.194-1.67.038-2.557-.457-2.583-2.517-4.683-5.092-5.183a6.507 6.507 0 00-7.66 7.736c.323 1.523-.475 3.037-1.945 3.553C11.97 14.832 5 24.1 5 35c0 14.328 12.063 25.854 26.597 24.95 11.997-.746 21.948-10.193 23.25-22.143 1.318-12.098-6.005-22.693-16.56-26.395-1.463-.514-2.253-2.028-1.93-3.545zm-7.028-4.702a3.4 3.4 0 014 3.993 3.39 3.39 0 01-2.67 2.67 3.4 3.4 0 01-3.994-3.999 3.41 3.41 0 012.664-2.664zM41.31 46.31A15.86 15.86 0 0130 51c-4.28 0-8.3-1.66-11.32-4.69A15.86 15.86 0 0113.99 35c0-4.28 1.66-8.3 4.69-11.32 3.02-3.02 7.04-4.69 11.32-4.69 4.27 0 8.29 1.67 11.31 4.69C44.34 26.7 46 30.72 46 35c0 4.27-1.66 8.29-4.69 11.31z" fill="#8B1D1E"/><path d="M23.344 34.045v-1.373h1.19v-6.298h-1.19V25h4.1v1.374h-1.202v6.298h1.203v1.373h-4.101zM29.19 25h3.285c.587 0 1.117.095 1.591.285.483.19.893.475 1.23.855.345.372.608.843.789 1.413.19.561.284 1.218.284 1.97 0 .751-.095 1.412-.284 1.982-.181.562-.444 1.033-.79 1.413a3.225 3.225 0 01-1.229.842 4.245 4.245 0 01-1.59.285h-3.287V25zm3.285 7.53c.639 0 1.143-.187 1.514-.558.38-.38.57-.959.57-1.737V28.81c0-.778-.19-1.352-.57-1.724-.37-.38-.875-.57-1.514-.57h-1.578v6.013h1.578zM22.5 35.8h3.286c.586 0 1.117.094 1.591.284.483.19.893.475 1.23.855.344.372.607.843.788 1.413.19.562.285 1.218.285 1.97 0 .751-.095 1.412-.285 1.982a3.789 3.789 0 01-.789 1.413 3.225 3.225 0 01-1.229.842 4.243 4.243 0 01-1.591.285H22.5V35.8zm3.286 7.528c.638 0 1.143-.186 1.513-.557.38-.38.57-.959.57-1.736v-1.426c0-.778-.19-1.352-.57-1.724-.37-.38-.875-.57-1.513-.57h-1.578v6.013h1.578zM34.11 45c-.776 0-1.435-.138-1.979-.415a4.607 4.607 0 01-1.384-1.088l1.151-1.115c.31.363.656.64 1.035.83.389.19.815.285 1.281.285.526 0 .923-.113 1.19-.337.268-.233.401-.544.401-.933 0-.303-.086-.549-.258-.739-.173-.19-.496-.328-.97-.415l-.855-.13c-1.802-.284-2.703-1.161-2.703-2.63 0-.406.073-.773.22-1.101.155-.329.375-.61.66-.843a2.95 2.95 0 011.021-.531c.406-.13.863-.194 1.372-.194.681 0 1.276.112 1.785.337a3.51 3.51 0 011.307.997l-1.165 1.102a2.684 2.684 0 00-.815-.674c-.319-.173-.72-.26-1.203-.26-.491 0-.862.096-1.112.286-.242.181-.363.44-.363.777 0 .346.1.6.298.765.198.164.517.285.957.363l.841.155c.914.165 1.587.458 2.018.882.44.414.66.997.66 1.75 0 .431-.078.824-.233 1.178a2.508 2.508 0 01-.66.907 2.99 2.99 0 01-1.06.584c-.414.138-.893.207-1.436.207zM66 44.5h2.18V42h8.98v2.5h2.18v-4.54H77.7V28.42h-9.32c0 5.7-.58 8.98-1.06 11.54H66v4.54zm3.6-4.54c.52-3.1.88-5.2 1.02-9.5h4.9v9.5H69.6zm18.066 2.34c4.14.06 7.2-3.22 7.14-7.1.06-3.88-3-7.16-7.14-7.1-4.14-.06-7.18 3.22-7.12 7.1-.06 3.88 2.98 7.16 7.12 7.1zm0-2.06c-2.96 0-4.88-2.18-4.88-5.04 0-2.84 1.92-5.06 4.88-5.06 3 0 4.88 2.22 4.88 5.06 0 2.86-1.88 5.04-4.88 5.04zM97.5 42h2.16V31.7l3.321 5.04h1.98l3.32-5.04V42h2.16V28.42h-2.54l-3.94 6.06v-.02l-3.92-6.04h-2.54V42zm22.764.3c4.14.06 7.2-3.22 7.14-7.1.06-3.88-3-7.16-7.14-7.1-4.14-.06-7.18 3.22-7.12 7.1-.06 3.88 2.98 7.16 7.12 7.1zm0-2.06c-2.96 0-4.88-2.18-4.88-5.04 0-2.84 1.92-5.06 4.88-5.06 3 0 4.88 2.22 4.88 5.06 0 2.86-1.88 5.04-4.88 5.04zm14.934 4.26h2.04v-2.26c3.7-.46 6.12-3.44 6.12-7.04 0-3.92-2.88-7.1-7.14-7.1s-7.12 3.18-7.12 7.1c0 3.6 2.4 6.58 6.1 7.04v2.26zm0-4.34c-2.42-.44-3.86-2.48-3.86-4.96 0-2.5 1.44-4.52 3.86-4.96v9.92zm2.04 0v-9.92c2.42.44 3.86 2.46 3.86 4.96 0 2.48-1.44 4.52-3.86 4.96zm14.94 2.14c4.14.06 7.2-3.22 7.14-7.1.06-3.88-3-7.16-7.14-7.1-4.14-.06-7.18 3.22-7.12 7.1-.06 3.88 2.98 7.16 7.12 7.1zm0-2.06c-2.96 0-4.88-2.18-4.88-5.04 0-2.84 1.92-5.06 4.88-5.06 3 0 4.88 2.22 4.88 5.06 0 2.86-1.88 5.04-4.88 5.04zm19.075-11.82v5.32h-7.06v-5.32h-2.18V42h2.18v-6.22h7.06V42h2.18V28.42h-2.18zm15.019 0v5.32h-7.06v-5.32h-2.18V42h2.18v-6.22h7.06V42h2.18V28.42h-2.18zm5.78 13.58h5.92c2.68 0 4.8-1.26 4.8-4.12 0-2.86-1.96-4.04-4.8-4.04h-3.74v-5.42h-2.18V42zm11.72 0h2.18V28.42h-2.18V42zm-9.58-2.04v-4.18h3.62c1.12 0 2.66.24 2.66 2.06s-1.54 2.12-2.66 2.12h-3.62zm17.54 0v-4.18h6.16v-2.04h-6.16v-3.28h7.74v-2.04h-9.92V42h10.04v-2.04h-7.86zm22.447 2.34c3.06 0 4.46-1.04 4.78-1.22v-2.34c-1.16.98-3 1.5-4.78 1.5-3.3 0-5.24-2.18-5.24-5.04 0-2.84 1.94-5.06 5.24-5.06 2.38 0 4.28 1.26 4.4 1.46v-2.3c-.7-.48-2.16-1.2-4.4-1.2-4.46-.06-7.56 3.22-7.5 7.1-.06 3.88 3.04 7.16 7.5 7.1zm7.482-.3h2.34l7.04-10.48V42h2.16V28.42h-2.36l-7.02 10.3v-10.3h-2.16V42zm21.737.3c3.06 0 4.46-1.04 4.78-1.22v-2.34c-1.16.98-3 1.5-4.78 1.5-3.3 0-5.24-2.18-5.24-5.04 0-2.84 1.94-5.06 5.24-5.06 2.38 0 4.28 1.26 4.4 1.46v-2.3c-.7-.48-2.16-1.2-4.4-1.2-4.46-.06-7.56 3.22-7.5 7.1-.06 3.88 3.04 7.16 7.5 7.1zm10.851-.3h2.16V30.46h4.76v-2.04h-11.68v2.04h4.76V42zm11.701-2.04v-4.18h6.16v-2.04h-6.16v-3.28h7.74v-2.04h-9.92V42h10.04v-2.04h-7.86zM296.602 42h2.16V31.7l3.32 5.04h1.98l3.32-5.04V42h2.16V28.42h-2.54l-3.94 6.06v-.02l-3.92-6.04h-2.54V42zm16.543 0h5.92c2.68 0 4.8-1.26 4.8-4.12 0-2.86-1.96-4.04-4.8-4.04h-3.74v-5.42h-2.18V42zm11.72 0h2.18V28.42h-2.18V42zm-9.58-2.04v-4.18h3.62c1.12 0 2.66.24 2.66 2.06s-1.54 2.12-2.66 2.12h-3.62z" fill="#165E94"/></svg>