<svg width="40" height="36" fill="none" xmlns="http://www.w3.org/2000/svg"><path d="M7.017 19.183a.949.949 0 01-.006-.035L4.57 4.507A3 3 0 001.61 2H1a1 1 0 010-2h.611a5 5 0 014.9 4h32.488a1 1 0 01.962 1.275l-4 14a1 1 0 01-.962.725H9.18l.25 1.493A3 3 0 0012.387 24H35a1 1 0 010 2H12.39a5 5 0 01-4.933-4.178l-.44-2.64zM12 35.999a4 4 0 110-8 4 4 0 010 8zm18 0a4 4 0 110-8 4 4 0 010 8z" fill="url(#paint0_radial_873_311)"/><defs><radialGradient id="paint0_radial_873_311" cx="0" cy="0" r="1" gradientUnits="userSpaceOnUse" gradientTransform="rotate(127.293 17.545 8.692) scale(47.5136 30.0435)"><stop stop-color="#DA6263"/><stop offset=".843" stop-color="#8B1D1E"/></radialGradient></defs></svg>