<svg width="74" height="74" fill="none" xmlns="http://www.w3.org/2000/svg"><g filter="url(#filter0_d_619_69)"><rect x="2" y="1" width="70" height="70" rx="35" fill="#00AEEF"/><rect x="22" y="21" width="30" height="30" rx="1" fill="#fff"/><path d="M26 25.5a.5.5 0 01.5-.5h21a.5.5 0 01.5.5v3a.5.5 0 01-.5.5h-21a.5.5 0 01-.5-.5v-3zm0 8a.5.5 0 01.5-.5h21a.5.5 0 01.5.5v3a.5.5 0 01-.5.5h-21a.5.5 0 01-.5-.5v-3zm0 8a.5.5 0 01.5-.5h15a.5.5 0 01.5.5v3a.5.5 0 01-.5.5h-15a.5.5 0 01-.5-.5v-3z" fill="#00AEEF"/></g><defs><filter id="filter0_d_619_69" x="0" y="0" width="74" height="74" filterUnits="userSpaceOnUse" color-interpolation-filters="sRGB"><feFlood flood-opacity="0" result="BackgroundImageFix"/><feColorMatrix in="SourceAlpha" values="0 0 0 0 0 0 0 0 0 0 0 0 0 0 0 0 0 0 127 0" result="hardAlpha"/><feOffset dy="1"/><feGaussianBlur stdDeviation="1"/><feComposite in2="hardAlpha" operator="out"/><feColorMatrix values="0 0 0 0 0.839216 0 0 0 0 0.839216 0 0 0 0 0.905882 0 0 0 1 0"/><feBlend mode="multiply" in2="BackgroundImageFix" result="effect1_dropShadow_619_69"/><feBlend in="SourceGraphic" in2="effect1_dropShadow_619_69" result="shape"/></filter></defs></svg>